<?xml version="1.0" encoding="UTF-8"?>
<svg id="Layer_1" xmlns="http://www.w3.org/2000/svg" version="1.1" viewBox="0 0 1916.85 1355.83">
  <!-- Generator: Adobe Illustrator 29.5.1, SVG Export Plug-In . SVG Version: 2.1.0 Build 141)  -->
  <defs>
    <style>
      .st0 {
        fill: #3539a9;
      }

      .st1 {
        fill: #d3bd5c;
      }
    </style>
  </defs>
  <rect class="st1" y="-2.43" width="1916.85" height="1360.68"/>
  <path class="st0" d="M0,1043.19l138.76,9.86,102.91-287.02s6.25-.99,13.48-36.82l23.34-21.37s42.74-120.66,57.21-137.76c0,0-4.93-6.25,81.54-39.45,0,0,90.41-30.25,122.3-81.54,0,0,.33-12.16,19.07-26.63,0,0,18.58-56.22,13.32-156.82l-73.73-37.64,55.97-1.48-60.9-43.89,71.75-.25-77.67-35.51,60.66-.25-67.32-24.41.25-3.7s78.58-.33,140.22-16.6c0,0,106.52-14.3,204.66,4.44l21.21,28.11,36,25.64s22.19-.99,27.62-4.93c0,0,.49,27.62-9.37,48.82l14.3,10.36s-12.08,29.92-25.4,38.8l-.08,14.38-14.79,17.92,2.47,5.75-.49,2.63-7.73-3.45,1.32,14.47s7.89,15.45,7.4,17.75l-.49,10.52-15.45,8.88s6.58,14.3-12.16,34.03-19.89,42.33-45.78,68.22c0,0-8.63,3.45-13.56,2.22l5.42,11.59,12.41-.9s107.02-48.82,151.4-36.99c0,0,18.74,5.42,27.62,14.3,0,0,25.64-9.37,64.6,28.6,0,0,75.45-9.37,100.11-21.7,0,0,26.63-2.96,58.19-6.9,0,0,28.11-13.32,41.92-12.33l20.22-15.29,30.58.99s111.12-68.38,145.97-98.63c0,0,8.63-7.56,44.38-5.59l32.47-27.04s50.3-27.12,78.41-59.18c0,0,17.75-15.29,93.7,3.45l66.08,9.37,38.47,9.37,35.01,5.92,59.18,11.34s24.16,10.36,19.23,28.11c0,0,4.77,19.56-17.75,24.82s-143.92-17.26-143.92-17.26l29.84,53.75s3.7,16.27,2.96,17.51-.25.99-2.47,5.18-11.34,10.85-11.34,10.85c0,0,2.96,7.15,2.47,13.56s2.96,23.92-14.05,38.96c0,0-20.47,4.19-45.86.49,0,0-15.29,27.86-52.27-.74,0,0-24.16,4.44-53.26,9.62,0,0-13.56,69.54-36.49,107.02,0,0-58.93-3.53-241.73,104.3,0,0-187.4,46.03-287.35,88.77,0,0-101.92,115.73-128.22,168.33,0,0-22.36,86.8-17.1,191.35l724.61,49.97.66,67.73-53.92,7.23,1.32,131.85H0v-315.06,215.95-215.95h0Z"/>
</svg>