<?xml version="1.0" encoding="UTF-8"?>
<svg id="Layer_1" xmlns="http://www.w3.org/2000/svg" version="1.1" viewBox="0 0 160 160">
  <!-- Generator: Adobe Illustrator 29.5.1, SVG Export Plug-In . SVG Version: 2.1.0 Build 141)  -->
  <defs>
    <style>
      .st0 {
        fill: #f2dbb1;
      }

      .st1 {
        fill: #286493;
      }

      .st2 {
        fill: #c1272d;
      }
    </style>
  </defs>
  <rect class="st0" width="160" height="160"/>
  <rect class="st2" x="72.7" y="-50.72" width="11.71" height="256.13" transform="translate(-31.43 69.81) rotate(-40.63)"/>
  <g>
    <path class="st1" d="M97.92,19.71l36.01,20.09c.11.38.06.63-.21.93s-2.8,1.44-3.44,1.85c-9.29,5.84-11.11,12.75-6.93,22.94.43,1.06,1.31,2.02,1.24,3.2-5.81-.8-11.75-1.51-17.49-2.81-3.96-.89-7.91-2.2-11.5-4.12-1.21-.65-5.29-2.9-5.02-4.37.18-.93.88-.11,1.09-.71-2.71-1.06-5.78-3.22-7.54-5.55-.56-.75-2.24-3.13-.51-3.11,2.89.55,6.02,1.62,8.93,1.9.27.03,1.08.24,1.05-.21-7.08-2.04-17.7-5.1-22.46-11.05-.56-.7-2.76-3.94-.74-3.84l20.08,5.76-7.85-4.04c-2.5-1.46-8.35-5.21-9.65-7.64-.33-.61-.51-1.13.33-1.3l22.21,6.98-7.37-3.8c-2.35-1.35-7.12-4.28-8.06-6.83-.22-.59-.37-1,.42-1.14l25.58,7.69c-2.39-2.7-8.69-5.76-9.32-9.55-.08-.46-.08-.86.19-1.26h.96ZM127.71,39.89l-15.37-8.89,10.81,8.41c.07.11-.44.62-.65.68-.81.21-13.76-5.03-15.8-5.73-.78-.27-1.74-.66-2.51-.85-.24-.06-.79-.32-.73.13l17.48,9-.41,1-20.43-3.99,18.73,6.98-.51,1.63-18.7-1.4,17.75,5.56-.21,3.82-10.68-.73-2.53.25c4.21,2.19,8.98,3.24,13.67,3.87l.98,2.86c-1.76-8.28.64-14.74,6.72-20.3.4-.36,2.72-1.84,2.41-2.28l-.02-.02Z"/>
    <path class="st1" d="M146.45,83.85c-.03-1.8-2.41-1.52-3.72-1.44-6.04.37-10.45,3.51-15.82,5.8-8.73,3.73-20.95,8.09-30.44,6.09-2.03-.43-4.16-1.21-5.63-2.72-2.3,1.33-4.86,2.76-7.52,3.24-1.46.26-4.32.31-5.58-.53-.33-.22-.23-.26.01-.47.68-.6,1.77-1.15,2.51-1.82,1.12-1.01,2.32-2.53,3.21-3.76.22-.3,1.64-2.32,1.48-2.48l-6.56,3.4c-5.06,2.21-12.52,4.26-17.99,3.01-.32-.07-2.81-.73-2.35-1.37l14.89-9.13c-7.98,2.44-20.25,5.98-26.31-1.92-.18-.24-.47-.3-.36-.72,5.39-.36,10.67-1.67,15.9-2.95l2.59-.89c-12.09.28-27.32,1.62-36.03-8.41,6.11-.41,12.25-.28,18.34-1.24l4.24-.92c-6.08-.26-12.19-.86-18.07-2.47s-12.59-4.56-15.32-10.26c4.59.57,9.2,1.25,13.81,1.68,2.8.26,5.86.57,8.64.73.39.02,1.64.18,1.81-.25-9.84-1.68-25.82-5.96-30.32-15.93-.09-.2-.41-.51-.07-.65,5.69,1.72,11.43,3.27,17.22,4.64,2.06.49,4.83,1.36,6.83,1.58.26.03.87.22.81-.21-6.33-1.86-12.92-4.48-18.47-8.07-4.67-3.02-10.16-7.75-10.11-13.79.34-.36,6.65,3.01,7.52,3.4,20.7,9.25,42.55,15.78,64.37,21.87,1.57,2.08,2.75,4.53,4.4,6.65,12.57,16.08,33.49,14.68,51.82,17.84,2.61.45,5.74.82,8.14,1.95.73.34,5.03,2.99,5.46,3.43,2.41,2.48-.54,6.44-3.34,7.07v.02ZM101.28,68.72c-7.19-2.09-14.2-6.35-18.97-12.14-1.65-2-2.79-4.39-4.59-6.22L21.53,30.52c.13.37.84.65,1.2.84,1.8.99,3.8,1.92,5.71,2.7,15.08,6.14,31.09,10.92,46.27,16.9,1.6.73,2.15,2.52,3.17,3.79,5.51,6.85,13.74,12.75,22.62,14.13.26.04.83.26.78-.18v.02ZM65.49,59.35h-12.49c0,.9,1.14,1.8,1.8,2.41,3.36,3.09,7.25,4.3,11.42,5.88l-4.8.6c-.78.75,3.81,3.59,4.4,3.89,1.02.52,4.57,1.88,5.57,1.88h5.04c.08,0,1.27-.65.6.12l-5.52,2.76c3.41,1.46,7.63,3.25,11.41,2.88,2.4-.23,4.75-1.62,7.09-2.16-.17.77-3.51,2.56-3.12,3.12,3.44,2.31,6.47,2.12,9.61-.6-1.26-.08-2.77,1.08-3.96,1.08-1.03,0-2.26-.72-3.25-.97l.24-.6,4.33-3.72c-3.32.39-7.15,2.06-10.44,2.17-2.4.08-5.02-.92-7.33-1.46l9.13-5.76c-5.87.59-13.99,3.29-18.73-1.32.12-.14.22-.26.4-.32,2.22-.7,5.48-.54,7.81-1.32l4.76-1.37h-9.73c-2.72,0-7.8-2.5-9.94-4.23-.39-.32-1.26-.77-1.23-1.3h17.42c.07,0,1.33-.26,1.32-.48-6.25-1.74-13.24-3.25-19.14-5.97-2.66-1.23-5.92-3.07-6.21-6.28,4.94,1.23,9.81,2.83,14.77,3.96,1.15.26,2.62.68,3.76.81.27.03,1.09.24,1.05-.21l-29.19-9.61c.29,5.63,5.5,8.87,10.05,11.09l13.13,5-.03.03ZM139.24,78.56c-.08-.46-.5-.4-.83-.49-1.36-.37-3.63-.59-5.03-.44-.93.1-2.15.74-2.88.68-1.1-.09-3.35-1.26-4.66-1.61-4.57-1.22-7.92-1.4-12.31-3.79-.7-.38-5.95-4.01-6.24-3.73.5,1.22,1.66,2.37,2.64,3.25,3.66,3.28,8.21,5.41,13.21,5.4.06.34-.42.33-.67.41-3.62,1.14-7.5.44-11.1-.41,3.48,4.9,9.92,2.78,14.89,2.16-1.06,1.08-2.59,1.61-3.96,2.16l-7.09,1.91c2.78,1.55,5.46.58,8.4.36-2.21,1.75-5.21,2.93-7.87,3.9-5.56,2.03-11.02,3.65-16.99,2.94-1.81-.22-3.56-.7-5.3-1.21l-1.07.73c6.79,2.7,13.53,2.3,20.47.42,6.29-1.71,12.06-4.61,16.41-9.54h.35c-.12.55,1.52,1.79,1.68,1.68,1.44-3.05,4.75-4.44,7.93-4.81l.02.03ZM140.44,77.12c-.07-.03-.9-1.04-.92-1.13-.27-.91.35-1.14,1.16-1.03l-.24.96.63-.7,1.19.2c.51,1.05-.89,2.05-1.82,1.7.05.01.14.33.82.26.94-.1,2.78-1.31,1.67-2.15-2.2-1.65-7.27-1.16-9.94-1.95,1.15,1.11,2.9,1.57,4.33,2.28,1.26.63,1.56,1.18,3.12,1.57h0ZM147.65,82.17c1.79-1.52,2.11-3.75-.02-5.14s-3.46-.97-5.02.94l1.44,1.08c-2.4.49-4.89.33-6.48,2.53,2.77.2,5.6-.87,8.41-.12-1.29-1.18-3.65-.89-5.28-.96l2.04-.48c1.85.03,4.74-.3,4.93,2.16h-.02Z"/>
  </g>
</svg>